<svg width="20" height="20" viewBox="0 0 20 20" fill="none" xmlns="http://www.w3.org/2000/svg">
<path d="M16.8691 3.96421C18.7541 5.85421 18.8191 8.86421 17.0658 10.8275L9.99913 17.9042L2.93413 10.8275C1.1808 8.86421 1.24663 5.84921 3.1308 3.96421C5.0183 2.07754 8.03746 2.01421 10.0008 3.77421C11.9583 2.01671 14.9833 2.07504 16.8691 3.96421ZM4.30996 5.14338C3.0683 6.38505 3.0058 8.37255 4.14996 9.68588L9.99996 15.545L15.85 9.68671C16.995 8.37255 16.9325 6.38755 15.6891 5.14171C14.45 3.90004 12.455 3.84004 11.145 4.98671L7.6433 8.48921L6.46413 7.31088L8.8183 4.95504L8.74996 4.89754C7.43746 3.84338 5.51913 3.93338 4.30996 5.14338Z" fill="#121212"/>
</svg>
